HIERARCHY
ROOT Hips
{
    OFFSET 0.000000 0.000000 0.000000
    CHANNELS 6 Xposition Yposition Zposition Zrotation Xrotation Yrotation
    JOINT Spine
    {
        OFFSET -0.000000 8.603107 0.000000
        CHANNELS 3 Zrotation Xrotation Yrotation
        JOINT Spine1
        {
            OFFSET -0.000000 23.906662 0.000000
            CHANNELS 3 Zrotation Xrotation Yrotation
            JOINT Neck
            {
                OFFSET -0.000000 23.808481 2.164407
                CHANNELS 3 Zrotation Xrotation Yrotation
                JOINT Head
                {
                    OFFSET -0.000000 14.688231 -2.098319
                    CHANNELS 3 Zrotation Xrotation Yrotation
                    End Site
                    {
                        OFFSET -0.000000 26.228985 0.000000
                    }
                }
            }
            JOINT LeftShoulder
            {
                OFFSET 4.178941 22.658146 -0.129871
                CHANNELS 3 Zrotation Xrotation Yrotation
                JOINT LeftArm
                {
                    OFFSET 9.497952 0.000000 0.000000
                    CHANNELS 3 Zrotation Xrotation Yrotation
                    JOINT LeftForeArm
                    {
                        OFFSET 38.855015 0.000000 0.000000
                        CHANNELS 3 Zrotation Xrotation Yrotation
                        JOINT LeftHand
                        {
                            OFFSET 24.940550 0.000000 0.000000
                            CHANNELS 3 Zrotation Xrotation Yrotation
                            End Site
                            {
                                OFFSET 15.737392 0.000000 0.000000
                            }
                        }
                    }
                }
            }
            JOINT RightShoulder
            {
                OFFSET -4.145384 22.658146 -0.129871
                CHANNELS 3 Zrotation Xrotation Yrotation
                JOINT RightArm
                {
                    OFFSET -9.497952 0.000000 0.000000
                    CHANNELS 3 Zrotation Xrotation Yrotation
                    JOINT RightForeArm
                    {
                        OFFSET -38.855015 0.000000 0.000000
                        CHANNELS 3 Zrotation Xrotation Yrotation
                        JOINT RightHand
                        {
                            OFFSET -24.940550 0.000000 0.000000
                            CHANNELS 3 Zrotation Xrotation Yrotation
                            End Site
                            {
                                OFFSET -15.737392 0.000000 0.000000
                            }
                        }
                    }
                }
            }
        }
    }
    JOINT LeftUpLeg
    {
        OFFSET 10.491594 0.000000 0.000000
        CHANNELS 3 Zrotation Xrotation Yrotation
        JOINT LeftLeg
        {
            OFFSET -0.000000 -46.080647 0.000000
            CHANNELS 3 Zrotation Xrotation Yrotation
            JOINT LeftFoot
            {
                OFFSET -0.000000 -50.184704 0.000000
                CHANNELS 3 Zrotation Xrotation Yrotation
                JOINT LeftToeBase
                {
                    OFFSET -0.000000 -6.819536 15.737392
                    CHANNELS 3 Zrotation Xrotation Yrotation
                    End Site
                    {
                        OFFSET -0.000000 0.000000 4.196638
                    }
                }
            }
        }
    }
    JOINT RightUpLeg
    {
        OFFSET -10.491594 0.000000 0.000000
        CHANNELS 3 Zrotation Xrotation Yrotation
        JOINT RightLeg
        {
            OFFSET -0.000000 -46.080647 0.000000
            CHANNELS 3 Zrotation Xrotation Yrotation
            JOINT RightFoot
            {
                OFFSET -0.000000 -50.184704 0.000000
                CHANNELS 3 Zrotation Xrotation Yrotation
                JOINT RightToeBase
                {
                    OFFSET -0.000000 -6.819536 15.737392
                    CHANNELS 3 Zrotation Xrotation Yrotation
                    End Site
                    {
                        OFFSET -0.000000 0.000000 4.196638
                    }
                }
            }
        }
    }
}
MOTION
Frames:    8
Frame Time:    0.008333
-80.990646    100.536034    -136.726929    5.373010    10.217368    -59.077965    -6.251992    -4.063668    -2.511062    12.711096    2.787323    -2.599453    5.174736    21.455891    20.871765    -16.072222    0.373034    19.865271    -3.492834    12.149249    -13.978355    -63.101391    36.159542    7.680689    8.147038    -23.058130    -126.224953    -13.312759    -8.908261    12.251994    3.459821    9.773547    -15.094334    40.345768    43.604198    4.589366    -3.504017    -21.359339    113.218750    13.059724    -17.726439    -12.730763    -5.183891    -5.703262    0.457165    -3.081852    52.182049    8.217685    80.717514    12.053835    -17.844908    0.000000    0.000000    0.000000    -3.900006    -23.051470    -4.347698    4.582497    17.792149    -1.357845    5.860034    -5.997412    -6.452771    0.000000    0.000000    0.000000    
-82.350182    99.728271    -136.199509    5.067060    10.369913    -58.392593    -5.798997    -4.066743    -2.318106    12.417024    3.157001    -2.455454    5.275522    20.923681    20.658516    -15.699003    0.551030    19.691816    -3.376206    12.284102    -13.546718    -62.811626    36.388832    6.952554    7.884844    -22.991486    -125.563484    -13.602182    -9.528533    11.548632    3.570630    9.344034    -14.733776    39.706963    43.676083    5.071486    -3.224344    -21.498047    112.877174    12.725255    -18.233629    -12.419033    -4.860063    -6.974823    0.395888    -2.655923    55.056519    7.811227    80.717514    12.053835    -17.844908    0.000000    0.000000    0.000000    -3.682244    -23.246601    -4.683582    4.524516    20.465740    -0.246445    2.661603    -9.418797    -7.571093    0.000000    0.000000    0.000000    
-84.607491    99.791328    -136.094681    0.525931    14.832430    -56.048565    0.172729    -3.809478    -2.536357    12.583790    4.488250    -3.037063    4.843151    20.429861    20.641352    -15.274758    0.334478    19.657438    -3.758217    12.224503    -13.030360    -62.328243    36.395710    6.461514    6.959638    -22.350405    -125.070335    -12.383687    -10.619916    11.076381    3.409132    9.182127    -14.070030    38.955769    42.889851    6.369865    -2.740670    -20.821321    112.368698    12.241438    -18.240618    -12.566010    2.547520    -7.080520    1.139093    -1.583021    58.267586    4.527689    80.717514    12.053835    -17.844908    0.000000    0.000000    0.000000    3.638317    -20.808107    -3.570010    3.568528    20.478418    -0.250217    3.302970    -7.711339    -9.847239    0.000000    0.000000    0.000000    
-85.828484    99.075356    -135.641464    0.357492    15.011002    -55.470760    0.790390    -4.116005    -2.645480    12.199905    5.413494    -3.252687    4.112296    19.770378    20.929667    -14.871925    0.007586    19.915983    -4.456836    11.960259    -11.876253    -61.650597    36.594795    6.112452    6.377651    -22.295717    -124.424057    -12.306121    -11.816868    10.890276    3.181245    8.872962    -12.569501    38.761257    42.171730    7.268983    -2.609681    -20.713627    111.507446    12.093085    -18.320814    -12.170185    2.989338    -8.869990    1.092203    -1.499518    61.163441    4.117495    80.717514    12.053835    -17.844908    0.000000    0.000000    0.000000    3.762907    -21.567814    -3.714427    3.857798    23.524864    1.006056    1.682878    -10.629457    -11.959159    0.000000    0.000000    0.000000    
-86.977707    98.443451    -135.113220    0.288645    15.384275    -54.906540    1.040539    -4.268554    -2.358749    12.817416    5.788033    -3.048040    3.665393    19.007809    20.710613    -14.890189    0.102225    19.652912    -5.631393    12.127685    -11.829320    -60.722622    35.467106    5.717638    5.342809    -20.926174    -123.600891    -12.232758    -12.309983    9.233459    3.012431    8.777531    -12.110360    37.750050    41.689686    8.457357    -2.699801    -20.977259    110.496292    12.000674    -18.475328    -11.690028    3.372557    -10.902731    0.754027    -1.840547    63.876732    3.133272    80.717514    12.053835    -17.844908    0.000000    0.000000    0.000000    3.839609    -22.411379    -4.379153    4.059843    26.386686    2.340172    0.692126    -12.939911    -13.488930    0.000000    0.000000    0.000000    
-87.075020    97.046730    -134.134048    4.844184    11.551425    -56.033447    -3.679820    -5.138248    -1.966991    11.815379    5.717175    -2.393728    3.660601    18.367002    20.638479    -14.745306    -0.023100    19.557640    -6.328484    12.311792    -11.644105    -60.171734    34.769196    5.514657    4.999223    -21.205381    -122.176308    -13.379406    -13.417805    7.731790    3.601766    8.902900    -11.049520    36.533516    40.806549    9.654483    -2.891835    -21.209240    109.345146    12.168814    -18.499655    -11.212750    -3.585681    -14.350185    -0.660266    -3.961910    65.620232    8.636473    80.717514    12.053835    -17.844908    0.000000    0.000000    0.000000    -3.617080    -25.881235    -6.251198    5.398208    31.467398    3.989293    -3.310896    -19.133451    -14.621991    0.000000    0.000000    0.000000    
-88.191406    96.608749    -133.488327    5.051657    11.483112    -55.719681    -3.692498    -5.229014    -1.663982    11.712100    6.015424    -2.112712    3.517994    17.474123    20.392092    -14.229328    0.231906    19.366829    -6.958464    12.404453    -11.491289    -60.365360    34.388744    5.728748    4.788852    -21.396772    -120.949455    -13.267781    -13.984694    5.893330    3.700743    9.118235    -10.080563    35.721069    40.212231    10.648023    -3.303339    -21.685726    108.238945    12.739971    -18.523277    -10.713584    -3.740933    -16.282661    -1.117339    -5.354627    67.620071    9.009208    80.717514    12.053835    -17.844908    0.000000    0.000000    0.000000    -4.013405    -25.879280    -6.203398    5.801251    32.911465    3.681238    -3.944831    -20.882795    -15.039916    0.000000    0.000000    0.000000    
-89.331833    96.319511    -132.784637    5.172163    11.360128    -55.437351    -3.797342    -5.282423    -1.193483    11.633060    6.340546    -1.664646    3.669866    16.599264    19.977592    -13.888491    0.477249    18.977205    -7.234700    12.795372    -11.523454    -59.776192    33.111782    5.078764    3.495883    -19.158604    -120.262497    -9.899178    -13.758780    5.292660    3.779402    9.259499    -9.452618    34.965160    39.792538    11.497622    -3.805092    -22.260033    107.392914    13.200994    -18.543896    -10.483399    -4.122935    -17.980709    -1.040954    -4.898406    69.200378    8.255066    80.717514    12.053835    -17.844908    0.000000    0.000000    0.000000    -4.132978    -25.547390    -6.498523    5.479035    33.838722    3.172519    -3.989760    -22.302361    -14.608855    0.000000    0.000000    0.000000    
